<svg width="181" height="71" viewBox="0 0 181 71" fill="none" xmlns="http://www.w3.org/2000/svg">
<path d="M48.0892 0.240664C48.0255 0.251223 47.9175 0.267039 47.7821 0.286516C47.3231 0.351532 46.5615 0.464325 46.1856 0.5307C46.4656 0.447527 47.2353 0.319293 47.7767 0.249289C48.2782 0.18388 48.5757 0.160947 48.0892 0.240664ZM8.87394 27.1156C9.06621 26.7775 9.25962 26.4418 9.4548 26.1091C8.85063 27.021 8.0807 28.302 7.5257 29.1885C7.43486 29.3332 7.62366 28.9292 7.41216 29.2739C7.27136 29.5036 7.26692 29.5662 7.19144 29.7321C7.15901 29.8065 7.11071 29.9039 7.02638 30.0546C6.69494 30.5371 5.57395 32.9543 5.38018 33.8701C4.76484 36.0591 4.60376 38.4033 4.80953 40.7385C4.88825 41.657 5.23351 42.6083 5.7865 43.5638C4.37407 40.7201 5.56111 43.6374 6.25408 44.4256C6.44308 44.5837 6.24521 44.5617 8.87444 47.2461C10.6632 48.9027 8.79714 47.563 12.0627 50.1404C10.2116 48.5137 11.2029 49.3266 12.6838 50.4824C13.1047 50.8087 13.583 51.1562 14.0488 51.4737C14.364 51.7332 17.2861 53.5459 18.687 54.225C19.1563 54.4673 19.9075 54.7735 20.5427 55.0767C20.9816 55.2862 21.297 55.4749 21.9558 55.7751C22.7681 56.1443 23.5813 56.4992 24.4023 56.846C26.6595 57.7985 28.9688 58.64 31.3437 59.4209C29.4052 58.9599 32.8045 59.9704 32.9598 60.0131C33.7185 60.3017 30.2204 59.2055 31.5922 59.6724C33.5237 60.2879 35.4765 60.8504 37.4458 61.3729C35.8362 60.9214 39.6187 61.8103 40.304 62.0213C40.2339 61.9649 40.8048 62.0983 41.7169 62.3214C44.3127 63.0042 49.6831 64.1258 50.7636 64.2105C51.0666 64.2325 49.108 63.925 53.6618 64.547C54.1544 64.6091 53.9632 64.6304 54.2252 64.6567C54.381 64.6723 55.3345 64.641 56.3358 64.8156C56.7042 64.8689 54.3326 64.7763 59.5186 65.1745C57.4586 64.9081 66.7385 65.571 68.4711 65.6101C68.1377 65.5797 67.7804 65.5478 67.4415 65.5159C68.7274 65.6025 69.2025 65.5978 69.5408 65.5985C69.6478 65.5984 69.7374 65.5986 69.8319 65.6021C71.3762 65.6593 73.5068 65.7522 74.9434 65.7687C76.6296 65.7875 76.6361 65.7001 78.6073 65.7509C78.1446 65.728 77.669 65.7044 77.2056 65.6802C78.5697 65.6988 79.9236 65.7117 81.2868 65.7198C78.1353 65.8247 81.9704 65.729 82.2177 65.7245C82.6204 65.7205 82.0412 65.7679 82.7156 65.7622C82.784 65.7611 82.6892 65.7169 83.7221 65.7105C85.8939 65.6952 85.5464 65.751 86.4604 65.7459C86.5444 65.7449 86.2492 65.7074 87.8236 65.6863C92.8235 65.6087 87.7991 65.7197 87.6069 65.7246C87.3557 65.7322 89.0688 65.896 84.8241 65.8562C86.2458 65.8701 86.3962 65.9429 86.5544 65.9441C86.6946 65.9459 89.1671 65.9157 89.3035 65.9107C90.5195 65.8728 89.4491 65.8327 89.6859 65.821C89.8781 65.8131 92.8577 65.8424 93.5532 65.6758C94.98 65.7941 92.7354 65.8214 90.3463 65.87C89.9978 65.904 92.6223 65.8993 92.7604 65.896C96.1452 65.8426 94.2691 65.7547 95.0079 65.668C95.396 65.6224 96.7757 65.6759 95.5012 65.5951C98.572 65.5248 96.7109 65.6211 96.9092 65.6266C97.2096 65.6339 98.2816 65.581 98.4173 65.5818C98.615 65.5834 97.9287 65.6349 98.7083 65.6303C98.8379 65.6292 100.091 65.5382 98.4724 65.5452C100.632 65.5048 100.455 65.4538 101.189 65.5427C102.672 65.3008 102.273 65.6337 102.859 65.6289C104.418 65.6143 103.961 65.4675 104.044 65.4575C104.606 65.3943 108.924 65.3047 109.987 65.2365C109.572 65.3692 106.569 65.3632 105.902 65.4052C103.67 65.5525 109.052 65.357 107.435 65.5552C108.109 65.4923 108.796 65.4277 109.47 65.3626C110.72 65.4061 108.956 65.5199 112.307 65.3477C112.854 65.2455 109.936 65.4581 110.52 65.3708C110.86 65.3212 112.809 65.2314 112.843 65.2097C112.881 65.1852 111.126 65.2869 111.4 65.239C112.001 65.1439 118.412 64.915 113.539 65.1859C114.894 65.1231 115.605 65.2436 116.783 65.135C117.543 65.0609 113.251 65.083 119.675 64.7692C119.821 64.8359 117.109 64.9356 117.037 64.9427C116.938 64.956 117.437 65.0951 117.524 65.0985C117.64 65.1024 118.663 65.0422 119.948 64.9582C122.071 64.8234 124.892 64.601 125.756 64.5792C125.206 64.5421 130.672 64.1254 131.254 64.0053C131.41 63.9796 130.816 63.9876 130.983 63.9626C132.024 63.8175 134.873 63.5551 136.161 63.3418C137.614 63.1085 137.42 63.0816 137.5 63.0697C138.137 62.9593 137.635 63.0837 138.023 63.0134C138.613 62.9373 142.602 62.0626 142.791 61.9777C142.848 61.9608 142.189 62.0689 143.049 61.8387C143.197 61.7909 143.122 61.9166 145.66 61.1553C145.876 61.0894 146.05 61.0347 146.189 60.9904C146.901 60.7614 146.662 60.8176 146.175 60.9454C145.414 61.1475 144.052 61.4928 144.762 61.2512C145.424 61.0988 145.857 60.9814 146.159 60.8917C146.766 60.7103 146.843 60.6404 147.2 60.5355C147.385 60.4812 148.783 60.1369 150.257 59.6221C149.203 59.9999 148.142 60.3611 147.075 60.7052C148.134 60.3996 150.158 59.7063 151.018 59.4154C151.437 59.2751 151.118 59.4659 152.022 59.1369C152.213 59.0624 152.919 58.6392 150.572 59.5518C150.362 59.5608 151.506 59.2029 152.022 58.9942C152.1 58.9626 152.376 58.7544 153.061 58.5641C153.219 58.5053 151.619 59.4982 155.974 57.5167C156.113 57.4516 155.606 57.6209 155.741 57.5564C155.834 57.5147 156.963 57.0555 157.083 56.9958C157.207 56.9365 156.652 57.1303 156.799 57.0585C157.552 56.6906 158.625 56.3936 157.034 57.0753C157.574 56.8648 158.111 56.6493 158.645 56.4283C158.031 56.5728 159.457 56.0243 160.171 55.6704C161.762 54.8888 162.4 54.5133 162.613 54.3819C162.76 54.2891 162.702 54.3048 162.594 54.3471C162.41 54.4198 162.074 54.571 162.384 54.3874C162.448 54.3488 162.507 54.3143 162.56 54.2834C163.481 53.7326 162.852 54.321 164.484 53.2843C164.624 53.1567 162.551 54.4645 166.57 51.8585C166 52.2677 165.408 52.6654 164.811 53.0424C165.229 52.9416 166.937 51.6182 167.053 51.5103C168.523 50.3548 167.6 51.2071 169.636 49.3449C169.815 49.1737 170.226 48.8285 170.583 48.4475C172.079 46.8735 168.507 50.4238 168.296 50.4065C168.315 50.5069 172.187 46.7361 172.207 46.5181C172.763 45.9617 170.622 48.3656 171.063 47.9414C171.282 47.8877 174.791 43.5564 175.572 41.1191C175.719 40.7605 175.804 40.4675 175.854 40.2852C176.203 38.9249 176.204 38.1929 176.046 38.2022C176.197 37.7652 176.015 37.3846 175.981 37.1884C175.932 36.9007 175.876 36.6439 175.819 36.4127C175.365 34.9159 175.265 34.7125 174.133 33.2053C173.832 32.8328 173.587 32.4879 173.461 32.3651C173.386 32.2947 173.48 32.4722 173.116 32.1213C172.716 31.5866 169.232 28.8058 168.911 28.6262C168.658 28.4021 170.481 29.7182 170.182 29.446C168.88 28.4804 167.54 27.6312 166.103 26.7596C165.508 26.4013 165.833 26.5528 165.572 26.3976C165.508 26.3587 164.765 25.9354 164.161 25.6086C163.761 25.392 163.423 25.2251 163.457 25.249C163.493 25.2751 163.762 25.4209 164.143 25.6399C165.876 26.5826 169.616 29.0328 168.284 28.2244C167.968 28.0251 166.895 27.2492 167.018 27.4487C166.067 26.8513 165.092 26.273 164.104 25.7091C159.5 23.1349 154.094 21.4758 148.72 19.9869C152.478 20.9193 156.631 22.2456 160.27 23.7714C160.775 23.9712 162.414 24.743 162.232 24.6058C159.259 23.1478 155.208 21.8041 152.053 20.8442C151.953 20.8133 152.337 20.8783 151.96 20.7595C151.257 20.5314 148.907 19.9573 148.518 19.8383C148.451 19.8142 149.798 20.1166 149.403 19.9691C148.389 19.5899 148.07 19.7352 147.175 19.4998C146.485 19.3039 141.832 18.0669 140.636 17.8793C139.374 17.6618 144.095 18.7199 143.729 18.7031C142.353 18.3991 140.969 18.0837 139.596 17.7734C137.799 17.3673 136.014 16.9788 134.29 16.6441C134.237 16.6338 134.692 16.7701 134.014 16.6437C132.835 16.4257 132.532 16.3032 131.964 16.1857C131.346 16.056 129.152 15.6695 128.862 15.596C128.825 15.5863 129.282 15.6011 129.349 15.6113C130.308 15.755 130.636 15.9017 130.721 15.9182C131.045 15.9805 131.374 16.0085 131.672 16.0658C132.161 16.1603 132.424 16.2401 133.071 16.3664C133.515 16.4537 133.097 16.3149 133.524 16.4C133.684 16.4305 135.355 16.8941 135.541 16.7968C135.619 16.6853 121.658 14.1724 120.232 14.0696C121.436 14.267 122.632 14.469 123.834 14.6781C121.4 14.245 118.443 13.9209 118.259 13.7355C110.775 12.6404 103.256 11.7456 95.7245 11.058C94.1223 10.9121 92.5197 10.7766 90.9168 10.6512C89.2885 10.5157 90.1876 10.4757 87.4986 10.3185C88.1891 10.3977 88.8837 10.4791 89.5747 10.5622C88.2005 10.425 82.0948 10.007 81.1045 9.99069C80.9775 9.98755 80.7921 10.0676 79.2683 10.0048C77.9114 9.95056 77.6958 9.87418 76.9741 9.83194C76.3646 9.79689 75.6827 9.79044 75.5025 9.78036C75.3633 9.77244 75.3092 9.72832 74.9759 9.70967C73.9266 9.65247 74.7758 9.79823 73.7327 9.62963C73.9865 9.6321 74.2453 9.635 74.4978 9.63798C73.2266 9.57663 71.4911 9.4702 73.3659 9.49115C73.6867 9.49529 73.41 9.52789 73.6494 9.53493C83.0507 9.87403 75.5455 9.48814 72.2504 9.47246C71.4055 9.38056 66.6666 9.34476 66.5074 9.34028C66.2886 9.32154 67.1004 9.27883 66.0362 9.23001C65.8104 9.20182 59.4799 9.28168 61.7571 9.18335C62.2273 9.15722 65.2682 9.16644 65.9992 9.17303C64.2775 9.0257 60.235 9.24952 59.7844 9.26133C57.9584 9.27507 63.2961 9.08814 59.176 9.14804C56.0082 9.21787 58.9809 9.2249 57.767 9.29447C57.7212 9.29719 57.6623 9.29978 57.5926 9.30232C56.6127 9.32842 53.5109 9.40275 53.6132 9.51773C52.3895 9.60284 53.104 9.49644 52.9519 9.50064C52.799 9.5007 50.4047 9.70781 49.6299 9.76137C49.5356 9.76681 49.825 9.67671 49.7277 9.6804C49.5346 9.68214 47.2336 9.93619 47.1426 9.95891C47.0848 9.96917 47.6388 9.96112 47.4156 10.0003C47.1535 10.0395 44.9435 10.3115 44.8223 10.3499C44.6538 10.3903 47.3816 10.0235 46.9327 10.1461C45.6735 10.2762 43.6317 10.6142 42.8051 10.7948C43.0074 10.7482 44.2292 10.5629 44.6522 10.5098C44.4674 10.6217 41.8431 11.0211 42.7296 10.8129C42.1641 10.9396 42.5573 10.8993 42.2412 10.9855C42.1584 11.0075 41.3452 11.1378 41.1899 11.1786C41.1704 11.1848 42.0157 11.0857 41.8504 11.1306C41.5544 11.2103 39.0723 11.5992 38.8637 11.6214C38.2861 11.6873 40.3126 11.3377 40.4733 11.2724C40.4961 11.2632 38.7619 11.4621 38.7325 11.459C38.6228 11.4052 40.548 11.1522 40.3186 11.1234C39.8438 11.1853 39.3658 11.2476 38.8891 11.3085C40.7189 10.9527 44.0704 10.4541 44.9197 10.2729C42.2504 10.6694 39.4138 11.1455 39.3923 10.9741C39.3827 10.9051 40.5461 10.6784 40.4973 10.6681C40.3151 10.6331 38.7037 10.9584 38.6414 10.9639C38.591 10.9678 38.5677 10.9676 38.5671 10.964C38.5671 10.964 38.5671 10.964 38.5671 10.964C38.565 10.9282 40.8724 10.5344 40.9841 10.4991C41.1736 10.4383 40.1273 10.479 40.1236 10.4517C40.1599 10.4402 41.7971 10.1499 41.2356 10.1906C40.6679 10.2316 39.2268 10.4603 39.1752 10.4628C38.8965 10.4783 41.4104 10.0509 41.4818 10.0227C41.5204 10.0075 40.1613 10.17 40.1188 10.1613C40.0834 10.1515 41.1046 9.95452 41.5014 9.84288C41.7973 9.75959 40.915 9.87134 41.0684 9.84138C41.1788 9.81792 43.5532 9.44978 43.669 9.4302C43.8414 9.39519 43.2792 9.43505 43.3584 9.4125C43.4714 9.37937 44.2406 9.28283 44.1382 9.28188C44.0619 9.2742 41.0643 9.58669 41.0768 9.54802C41.1001 9.47391 44.2773 9.13626 41.302 9.33123C41.2812 9.33265 40.5702 9.46489 40.5498 9.46654C40.1016 9.48819 42.379 9.04913 39.5816 9.50792C44.7771 8.59758 40.2138 9.30356 40.9664 9.06929C41.2565 8.97705 43.2769 8.64586 43.286 8.64046C43.0804 8.6147 42.4423 8.75556 42.2189 8.76295C42.0954 8.76487 43.8995 8.43326 43.4859 8.45741C43.2707 8.46664 41.3494 8.77147 41.2701 8.78166C40.5047 8.86639 41.4303 8.68025 41.2594 8.68139C41.1455 8.68173 39.988 8.86479 39.9573 8.86655C39.9075 8.86796 41.4679 8.54873 41.7933 8.47376C42.0399 8.41595 41.0989 8.53411 41.2718 8.49868C42.3111 8.282 44.5709 8.07145 42.3872 8.22401C42.2537 8.2333 41.4405 8.36491 41.4164 8.36679C40.9057 8.39684 42.4034 8.15682 42.6666 8.07684C43.1172 7.93648 40.9644 8.30743 42.7526 7.98257C41.3977 8.14291 40.6502 8.2677 39.0879 8.52818C43.4196 7.80173 44.9443 7.38906 40.1064 8.15117C41.6405 7.90966 41.4564 7.83626 41.9151 7.76253C42.1987 7.71372 44.4603 7.48241 43.3966 7.40845C43.2624 7.39795 41.906 7.64182 42.3236 7.51897C45.6021 7.04438 42.3853 7.46877 42.3827 7.4645C42.3827 7.26802 50.4874 6.37033 51.8849 6.34901C53.4968 6.21939 54.9322 6.05118 55.2806 6.03575C56.4426 5.98722 55.4795 6.08104 55.7406 6.09004C55.8641 6.09421 56.6607 6.04406 57.4931 5.99817C58.4042 5.94675 59.3601 5.90012 59.4426 5.9015C60.0746 5.91181 59.4344 5.98811 59.5005 5.99008C60.285 6.00279 64.6827 5.91929 65.9098 5.95092C65.8734 5.90721 63.404 5.90094 64.9449 5.83629C66.7409 5.76435 66.8416 5.9522 66.8885 5.95964C75.1111 6.03372 83.3105 6.4182 91.4986 7.04902C91.4053 6.93548 86.0423 6.6317 85.9226 6.62042C85.2106 6.47862 94.2619 7.13141 95.3624 7.29156C94.5244 7.19698 93.6818 7.10482 92.8412 7.01564C93.5873 7.01841 94.7872 7.12904 96.0648 7.26078C97.2641 7.38418 98.5317 7.5262 99.5408 7.60163C100.213 7.6518 98.9294 7.48223 98.9564 7.48232C99.7137 7.51178 100.922 7.6672 100.011 7.63434C101.857 7.7641 101.582 7.79879 102.993 7.95246C103.066 7.96056 102.465 7.85049 103.584 7.95208C104.108 7.99748 106.897 8.31226 107.275 8.31916C107.431 8.32025 106.036 7.98298 105.844 8.11303C102.817 7.7009 104.867 8.07225 103.688 7.93913C103.507 7.92053 103.933 7.87425 100.957 7.60658C101.54 7.51015 104.948 7.98973 105.536 8.04132C106.749 8.13686 101.775 7.50815 100.847 7.5408C101.286 7.46718 100.495 7.48778 99.3832 7.37395C98.1667 7.25043 98.6998 7.267 98.0411 7.20399C96.5442 7.06292 96.7998 7.14548 96.0831 7.05681C95.9361 7.03882 95.7486 7.01388 95.4978 6.97903C96.9273 7.33748 92.9505 6.78622 91.7898 6.6404C93.222 6.74355 94.6557 6.85487 96.0904 6.97447C96.5519 7.01292 97.0143 7.05229 97.4776 7.09255C97.3703 7.07029 97.263 7.04808 97.1557 7.02592C97.6561 7.07386 98.1521 7.12232 98.6515 7.17204C98.5704 7.176 98.4893 7.17999 98.4083 7.18401C100.987 7.35605 101.604 7.51258 101.814 7.53397C104.509 7.82284 107.619 8.17684 110.339 8.51586C110.746 8.56838 110.477 8.45001 113.441 8.89614C114.386 9.04037 113.484 8.98 114.559 9.11478C115.923 9.13666 115.881 9.2621 116.28 9.31711C117.426 9.47617 118.129 9.53769 118.236 9.55252C119.651 9.74844 121.722 10.0649 123.274 10.3036C123.303 10.3076 122.505 10.1323 123.509 10.3047C123.865 10.3651 126.999 11.0761 129.781 11.5015C129.06 11.3595 128.347 11.2215 127.627 11.0847C128.472 11.2322 134.412 12.2691 132.971 11.9486C132.09 11.7451 129.895 11.4884 129.68 11.3193C131.074 11.5831 136.964 12.6553 140.554 13.4694C142.03 13.796 143.118 14.0522 143.363 14.1186C143.48 14.15 142.751 14.0239 142.911 14.0668C143.039 14.0975 145.511 14.6743 145.835 14.7744C146.029 14.8314 144.93 14.5906 145.014 14.6271C145.095 14.6521 148.169 15.4375 148.359 15.4386C147.599 15.26 145.472 14.7139 146.601 14.9481C146.744 14.9777 147.482 15.1991 147.658 15.237C149.292 15.5819 144.448 14.3774 143.698 14.2165C146.759 14.8595 151.441 16.1381 154.95 17.1983C156.344 17.6771 152.839 16.6201 154.421 17.1439C157.712 18.26 155.325 17.3626 155.428 17.3878C156.269 17.5928 158.984 18.7885 159.041 18.6278C160.226 19.0987 159.834 18.9618 161.519 19.6156C161.305 19.5138 161.084 19.4111 160.872 19.3128C162.593 19.8478 165.834 21.6804 166.201 22.0026C166.242 22.0328 166.251 22.0429 166.223 22.0293C166.213 22.0247 166.203 22.02 166.194 22.0152C165.393 21.5977 163.458 20.5717 163.284 20.5063C163.019 20.4016 162.257 20.1935 159.477 18.9632C158.275 18.6042 163.928 20.8397 161.334 19.8701C162.151 20.1982 164.169 21.0611 166.104 22.174C168.181 23.3544 170.194 24.6596 170.694 24.9665C170.805 25.0381 170.374 24.575 171.907 25.7164C172.636 26.2672 170.836 25.0062 171.162 25.2719C171.531 25.8417 177.736 28.7767 179.715 35.4295C180.411 37.9412 180.196 40.7994 179.376 42.6685C178.909 43.8202 178.45 44.681 178.176 45.1789C178.068 45.3727 178.074 45.2834 177.966 45.4734C177.659 46.0658 176.361 48.1261 175.577 49.0197C177.164 47.1351 174.201 50.8979 173.26 51.6681C171.925 52.9317 171.95 52.7756 171.344 53.2843C169.508 54.8131 166.711 56.7838 164.506 57.904C163.926 58.2054 163.397 58.4576 162.95 58.6474C163.134 58.7432 159.355 60.3153 157.643 60.9953C156.309 61.555 154.384 62.3998 156.226 61.7429C153.901 62.6633 151.432 63.5661 149.203 64.2848C148.834 64.4034 149.329 64.201 148.701 64.4033C148.644 64.4217 148.578 64.4886 148.037 64.6596C147.789 64.7379 147.561 64.8086 147.351 64.8728C143.775 65.9332 145.663 65.2927 144.857 65.4943C144.378 65.6078 144.024 65.6909 143.763 65.7546C144.958 65.4484 146.22 65.0866 147.315 64.7527C148.663 64.3432 149.768 63.9758 150.208 63.8299C149.886 63.891 148.678 64.2877 147.302 64.7092C145.648 65.2235 143.722 65.7545 142.885 65.937C142.832 65.9488 143.003 65.8535 142.95 65.8661C142.949 65.8663 142.948 65.8666 142.946 65.8669C142.381 66.0268 138.712 66.795 139.481 66.6979C139.685 66.6747 141.383 66.3555 143.37 65.8546C142.833 65.9989 143.25 65.9567 143.155 65.9826C142.013 66.3082 139.149 66.8381 138.136 66.9936C137.905 67.0321 137.928 67.0662 137.89 67.0729C136.965 67.2203 137.325 67.0526 136.4 67.3111C134.709 67.4482 139.525 66.7786 139.168 66.7289C138.901 66.8551 128.265 68.239 128.305 68.2506C128.267 68.2427 128.122 68.2422 127.819 68.2534C127.152 68.2834 124.193 68.5279 123.684 68.5791C123.598 68.589 123.64 68.6886 123.533 68.6971C123.353 68.712 121.68 68.7928 120.182 68.8754C119.453 68.9161 118.738 68.9607 118.301 69.0047C118.918 68.9834 119.569 68.9587 120.185 68.9343C120.287 68.9302 120.388 68.9261 120.489 68.922C120.385 68.9282 120.284 68.9343 120.186 68.9403C116.13 69.1745 116.792 69.1582 118.238 69.1133C118.311 69.1096 118.383 69.1096 118.452 69.1061C119.018 69.0865 119.692 69.0591 120.192 69.0385C120.702 69.0172 121.062 69.002 121.073 69.0053C121.092 69.0109 120.746 69.039 120.194 69.0763C118.292 69.2116 114.007 69.4104 115.123 69.2822C115.319 69.2628 118.773 69.1264 117.063 69.1473C116.765 69.1523 114.549 69.2794 114.427 69.2764C113.652 69.2668 118.48 68.9612 117.893 68.9171C116.72 69.0477 115.21 69.087 113.864 69.165C113.252 69.2004 113.101 69.2581 113.025 69.2625C111.9 69.3245 112.529 69.2434 112.153 69.2608C111.947 69.2715 109.728 69.4742 110.141 69.2996C102.805 69.6754 108.117 69.506 112.617 69.3058C111.194 69.4261 108.404 69.504 107.156 69.5584C106.707 69.5785 106.971 69.6225 106.217 69.6579C104.657 69.7407 97.1999 69.8705 95.2577 69.8807C96.4501 69.8403 96.1003 69.7895 95.1798 69.8101C94.2591 69.8302 95.0338 69.8933 94.8544 69.9046C94.6624 69.9194 90.3408 69.9456 89.6233 69.9593C92.8755 69.8939 92.1402 69.8467 89.3801 69.8708C89.7802 69.8504 90.1777 69.8296 90.5765 69.8085C88.9594 69.8528 85.555 69.7876 84.6221 69.8142C84.4753 69.8189 85.0032 69.8653 84.9204 69.8679C84.0962 69.893 81.3095 69.8427 81.1771 69.8573C81.0684 69.8709 82.257 69.9134 81.8159 69.9325C81.7269 69.9366 80.5742 69.8697 79.4434 69.8789C79.0226 69.8823 79.2757 69.9293 79.1698 69.9313C78.2889 69.9469 78.812 69.8755 77.1983 69.8727C76.0195 69.8693 75.1338 69.9337 73.5064 69.8794C78.8601 70.0559 74.3593 69.9586 72.1178 69.9358C71.7539 69.9311 72.0652 70.026 69.9135 69.9268C73.0801 69.9057 71.244 69.8646 69.4121 69.8209C68.5847 69.8005 67.7848 69.7781 67.4086 69.7634C67.3432 69.7604 67.3201 69.7055 66.7372 69.6815C66.6871 69.6795 66.7556 69.7195 66.2044 69.6994C61.0006 69.4807 64.3288 69.5947 63.344 69.5107C62.9237 69.4764 60.3863 69.3713 59.7099 69.3181C59.5516 69.3064 59.6235 69.2742 59.0172 69.2293C57.9418 69.149 56.9803 69.1042 56.2676 69.0393C56.1829 69.0303 56.1914 68.9759 54.8433 68.8552C54.4635 68.8204 54.0343 68.7943 54.572 68.8706C56.3451 69.129 59.7316 69.3102 61.7396 69.4843C63.5756 69.6583 57.7857 69.277 57.4842 69.2265C57.3771 69.2177 58.505 69.2844 57.3577 69.1796C56.3814 69.0906 54.5708 69.0184 53.1142 68.8184C53.0036 68.805 51.8483 68.5699 51.9002 68.5702C51.9525 68.5767 53.7425 68.7759 53.4865 68.7178C53.4567 68.7126 52.3145 68.574 52.1726 68.535C51.9923 68.4888 51.53 68.1983 51.2918 68.1596C50.6673 68.0589 51.0669 68.1669 50.666 68.1066C49.8059 67.9897 46.8269 67.418 46.7214 67.4685C47.21 67.5629 47.701 67.6538 48.1972 67.7418C45.4538 67.2717 46.6154 67.501 46.2252 67.4479C45.8074 67.3843 45.9341 67.3408 45.0163 67.1513C44.811 67.1262 40.9884 66.2902 41.0563 66.3231C43.1701 66.7681 42.3729 66.6661 42.4689 66.6916C42.8381 66.7806 43.3213 66.8384 43.8191 66.9454C47.3325 67.6746 43.7718 67.0251 44.5977 67.2135C44.8799 67.2786 45.4614 67.3523 45.5806 67.3773C45.974 67.4607 45.9729 67.5148 46.2356 67.5601C46.8538 67.6654 46.1479 67.4563 46.1981 67.4614C46.7566 67.5247 48.9065 67.9518 47.5476 67.8023C48.3515 67.9712 48.4614 67.8864 49.0976 68.029C50.3634 68.3065 48.4503 67.9903 47.932 67.9109C46.0714 67.6326 45.5209 67.5004 42.918 66.9492C42.1446 66.7825 41.2513 66.6089 40.7224 66.4961C40.6107 66.4724 40.5153 66.4514 40.4404 66.434C40.1676 66.3758 37.6569 65.5724 37.5164 65.8053C36.5297 65.5246 35.0243 64.9337 34.008 64.6484C33.0948 64.3924 33.3579 64.5651 33.2718 64.5442C33.1398 64.5127 32.0404 64.1769 31.6657 64.0738C31.2247 63.9536 31.433 64.0571 30.7371 63.8531C29.0088 63.3379 29.0867 63.2503 28.9128 63.1879C26.8993 62.4229 27.7461 62.8529 27.2915 62.7067C27.03 62.6224 24.6916 61.7665 22.6837 60.9004C21.45 60.3744 20.3358 59.8692 19.873 59.6696C20.3674 59.8764 20.8627 60.0783 21.3598 60.2763C20.5093 59.8377 19.5468 59.4968 19.5763 59.3917C19.3245 59.4716 17.5872 58.5061 17.0549 58.23C16.8446 58.1242 16.8474 58.1591 16.5843 58.0237C15.5533 57.5119 13.292 56.1728 12.7526 55.8269C10.3775 54.4282 16.3186 58.2058 16.8403 58.3532C15.8412 57.9479 10.4677 54.6565 12.8829 56.2613C13.2567 56.5114 13.9769 56.8491 14.1934 56.9697C15.6684 57.7877 14.4831 57.1933 14.5933 57.2639C14.7829 57.3871 15.7858 57.8619 16.0398 58.0026C16.1251 58.048 15.54 57.821 16.9573 58.5557C16.2178 58.2991 12.3078 55.9942 11.8159 55.6129C11.6484 55.4779 12.5892 56.3804 9.79828 54.1896C9.7106 54.1168 9.61948 54.0408 9.5249 53.9613C9.55227 53.9982 9.57973 54.0351 9.60728 54.072C7.93088 52.7625 6.26854 51.3752 4.70708 49.7678C4.89789 49.9275 5.81381 50.7727 4.70181 49.6584C4.06844 48.9976 4.48755 49.5326 4.42898 49.4735C4.29189 49.1277 0.754561 46.4413 0.103686 41.1428C-0.322652 37.1294 0.671559 32.8953 1.17075 31.5837C1.4326 30.6259 2.58563 28.1066 2.72215 27.9399C2.81601 27.7699 2.94805 27.5383 3.11482 27.2642C3.91695 25.929 5.53297 23.3779 5.92924 22.7973C6.21034 22.3677 5.89536 22.745 6.15387 22.3646C6.39589 22.0116 6.18863 22.4068 6.26168 22.3027C6.68957 21.4806 11.1008 15.7889 13.552 14.3732C13.7115 14.2601 13.8495 14.1635 13.9618 14.0865C13.8638 14.1556 13.7254 14.2557 13.5566 14.3796C11.8758 15.445 8.69535 19.0733 8.84806 19.0339C8.86214 19.0135 9.84062 17.9413 10.0409 17.7134C10.4009 17.3738 11.5321 16.0626 12.2902 15.4787C12.3804 15.4189 12.0775 15.7162 13.4271 14.6918C13.491 14.6448 13.5686 14.5868 13.6586 14.5198C14.1774 14.1329 15.1336 13.3955 16.1644 12.7387C17.6769 11.3898 27.1982 5.923 28.0132 5.77541C28.0303 5.7583 26.5976 6.38198 27.5442 5.91404C28.8127 5.30721 27.7119 5.9377 29.2261 5.31711C29.3704 5.25403 31.1671 4.53632 32.514 4.11292C33.2452 3.8764 33.8261 3.70039 33.8744 3.6823C34.6826 3.38947 33.4602 3.7097 32.4791 4.00333C31.9037 4.17453 31.4149 4.33877 31.4328 4.32866C31.4778 4.30408 31.9132 4.1442 32.4661 3.96247C33.4209 3.64531 34.7196 3.26499 34.8009 3.24641C34.9223 3.21683 32.4224 4.05381 35.452 3.13845C35.0997 3.22345 34.7492 3.30995 34.3955 3.39958C35.8193 2.96193 35.9781 3.0057 36.325 2.9145C37.4075 2.63821 38.5499 2.22205 40.3243 1.95456C40.7934 1.88467 40.0381 2.1021 40.0973 2.09452C40.661 2.01455 41.3376 1.72157 42.1946 1.64139C42.2599 1.63954 40.3251 2.09759 43.728 1.39487C43.4909 1.43201 43.2551 1.46977 43.0184 1.50856C43.4882 1.37264 46.9614 0.72767 47.4424 0.680193C47.606 0.657059 47.7329 0.640828 47.8323 0.629353C48.5782 0.545894 47.7928 0.707363 49.0149 0.533925C48.0999 0.537409 52.3636 0.0400982 52.1331 0.176088C52.7201 -0.00605774 56.4286 -0.0594602 58.1446 0.0755405C59.2336 0.119999 61.4272 0.285178 61.7636 0.334382C62.0861 0.3753 62.0726 0.417605 62.4053 0.483311C62.498 0.501896 62.6177 0.522286 62.7789 0.544912C62.9844 0.57371 65.1491 0.779352 67.033 1.08024C67.4043 1.13914 68.1519 1.34951 67.4712 1.29706C66.2986 1.20609 64.0962 0.845963 64.1198 0.919738C64.1369 0.997062 67.1255 1.3107 67.9203 1.41752C71.617 1.91271 69.4648 1.7317 69.5626 1.76781C69.7981 1.85552 71.8219 2.10162 71.904 2.11724C72.2485 2.1832 70.8174 2.05433 70.7856 2.08669C70.7598 2.13042 72.693 2.45297 72.2489 2.41428C71.6071 2.3576 69.8346 2.06986 69.7171 2.05906C68.2376 1.92439 70.2512 2.27843 70.7954 2.39874C70.9605 2.43538 70.2907 2.3804 70.4286 2.40211C72.5606 2.73661 70.8902 2.30565 72.3188 2.49637C73.5856 2.66595 71.946 2.53534 71.993 2.54514C72.0581 2.55737 73.5631 2.74687 73.8073 2.80249C73.9201 2.82842 69.9566 2.47995 70.1179 2.56273C71.3781 2.70302 72.6396 2.84453 73.8989 2.98665C73.9888 3.07893 72.1807 2.79583 71.9966 2.78173C71.6188 2.75206 72.6581 2.9211 72.613 2.94128C72.5847 2.9541 71.3535 2.86086 72.4571 3.02077C72.847 3.07715 73.6469 3.11868 75.0381 3.34958C70.1794 2.82269 73.5325 3.28318 73.6752 3.32952C73.8054 3.3744 71.4893 3.15581 74.2991 3.49133C74.402 3.66228 74.2343 3.53322 73.429 3.46145C72.4461 3.37446 74.7053 3.70447 71.1309 3.22516C71.3194 3.3219 74.2044 3.67259 74.3532 3.69731C74.4845 3.71893 73.8378 3.67525 74.064 3.7156C76.7494 4.19182 74.9 3.89705 75.6687 4.08389C75.7431 4.1012 78.2807 4.45109 76.3389 4.22261C72.8002 3.80641 71.3422 3.52379 70.7177 3.67137C73.3286 4.08837 76.4952 4.3383 77.3018 4.43632C78.5188 4.58436 77.2488 4.47194 77.4006 4.50368C77.4428 4.51309 78.5021 4.64122 78.5149 4.64641C79.239 4.90796 73.8449 4.06691 72.1406 3.88798C72.5906 3.96901 73.0441 4.0506 73.5018 4.13283C72.8798 4.05693 72.2645 3.98208 71.6407 3.90641C74.5912 4.32151 71.7431 3.93816 70.9915 3.98474C70.8237 3.99526 72.7634 4.17994 70.5419 3.99389C72.1728 4.21393 71.6461 4.17751 73.1305 4.32157C73.0902 4.37172 69.7517 4.02351 68.4402 3.89331C73.0671 4.52077 70.4442 3.99549 74.4408 4.59691C75.1892 4.62091 73.2805 4.39775 73.4353 4.40567C73.9905 4.43347 75.3088 4.66164 76.8985 4.7167C77.1597 4.72575 76.0749 4.51835 77.6923 4.72331C77.8767 4.74679 78.8819 4.93364 78.8766 4.93742C78.7305 4.96768 77.7241 4.82426 77.6745 4.83826C77.6364 4.85265 78.7698 4.98225 78.7707 4.9876C78.7997 5.05185 77.8216 4.89268 77.9639 4.92935C78.257 5.00727 82.3381 5.64479 77.009 4.94389C81.4464 5.42767 77.5815 4.94833 75.8597 4.76023C75.4106 4.71098 75.3088 4.7345 74.6743 4.66832C73.8636 4.58396 72.932 4.45147 72.5105 4.40617C72.0631 4.3585 74.5981 4.75591 70.9195 4.27785C72.7821 4.59081 76.1002 4.91238 77.9368 5.20123C81.6348 5.78207 75.3317 5.0233 74.6693 4.95308C74.4935 4.93443 75.077 5.05573 74.9596 5.04416C74.7707 5.02477 71.1914 4.56001 70.8371 4.55769C70.4799 4.55421 72.1512 4.71719 72.2498 4.77163C72.3276 4.80879 67.9988 4.32932 70.3353 4.63456C71.948 4.84479 74.9227 5.09938 75.4081 5.28256C73.0454 4.99896 70.6742 4.7169 68.3043 4.43909C69.5949 4.64255 70.8851 4.84713 72.1731 5.05246C69.5198 4.74043 67.2181 4.408 64.6935 4.17204C70.7417 5.04969 62.7102 4.05183 62.6198 4.06189C62.5831 4.0681 64.9673 4.47399 65.3402 4.54136C64.5651 4.46534 63.1964 4.3155 61.9659 4.18789C59.9025 3.97747 58.2603 3.91197 60.5642 4.20477C59.9004 4.0984 58.2887 4.06965 58.3108 4.08196C58.5066 4.13096 62.0158 4.42502 61.4408 4.4359C60.7682 4.42984 59.8506 4.24254 58.8321 4.18041C53.6246 4.02469 55.0989 4.33487 49.9071 4.79229C50.0126 4.79122 50.1168 4.79057 50.2219 4.79007C49.6418 4.85871 49.0595 4.93596 48.475 5.01951C43.5807 5.74321 38.6142 6.9028 33.8681 8.36879C33.7072 8.41937 33.547 8.47089 33.3874 8.52333C31.312 9.21361 26.0603 11.7739 23.6017 13.3782C23.0952 13.6685 20.6355 15.2147 20.4509 15.3417C20.1016 15.5519 21.9593 14.3006 21.0984 14.8335C20.9092 14.9184 16.8264 17.7651 17.1537 17.6197C17.6121 17.2943 19.0204 16.2593 19.2629 16.1103C19.9178 15.7037 18.4463 16.724 16.3665 18.2432C13.3211 20.2752 10.0729 25.1267 9.85324 25.5371C10.0524 25.2703 10.2529 25.0065 10.455 24.746C9.916 25.5136 9.39204 26.3063 8.87394 27.1156ZM44.0666 1.09114C44.6488 0.915595 46.1511 0.687575 47.0423 0.534029C47.2717 0.493482 47.5335 0.441829 47.7971 0.388835C48.9362 0.156779 50.1857 -0.103198 49.468 0.169061C48.9088 0.244301 48.3533 0.326093 47.8006 0.412561C46.5422 0.609547 45.3005 0.83921 44.0666 1.09114ZM19.1473 10.5086C20.1912 9.86939 19.4593 10.4878 18.5992 10.9971C18.5049 11.0542 17.7452 11.3841 19.1473 10.5086ZM30.7037 4.59499C30.6537 4.61161 29.64 4.99433 29.6047 5.00952C28.677 5.30889 31.7394 4.15896 30.7037 4.59499ZM7.94919 52.6068C6.90275 51.724 7.57937 52.4604 8.2647 52.9643C8.3074 52.996 8.01672 52.6637 7.94919 52.6068ZM7.20938 51.9713C6.46897 51.2092 4.7513 49.8326 6.0242 51.0188C6.14622 51.1383 7.24409 52.014 7.20938 51.9713ZM22.9051 8.25585C22.8022 8.35714 21.695 8.98336 21.2304 9.2608C21.2222 9.22036 22.4413 8.52123 22.9051 8.25585ZM1.13754 31.8452C1.05572 31.8744 2.77836 27.8368 3.19733 27.3142C3.20927 27.2914 3.21783 27.274 3.22269 27.2627C3.21421 27.2775 3.20467 27.2941 3.19413 27.3122C2.64113 28.0414 1.04884 31.759 1.13754 31.8452ZM0.942287 44.1679C0.863442 44.065 0.32391 42.2743 0.34266 42.3164C0.469268 43.2578 1.15192 44.738 0.942287 44.1679ZM18.3138 59.226C18.392 59.2504 17.4397 58.6197 19.8213 59.8645C20.1719 60.046 18.8754 59.4936 19.0001 59.557C19.2609 59.6938 19.4681 59.7966 19.6372 59.876C18.4958 59.3664 17.324 58.7858 17.2157 58.7181C16.7081 58.4077 18.2782 59.2174 18.3138 59.226ZM29.2013 63.4982C29.4527 63.5552 31.003 64.0705 31.355 64.1885C31.4153 64.2093 31.1273 64.1996 31.8317 64.4101C32.3975 64.5769 31.5768 64.2497 32.6728 64.5918C33.7816 64.933 32.2797 64.5454 32.3759 64.5769C32.5043 64.6242 34.2375 65.0932 34.1713 65.1179C34.1222 65.1414 32.2814 64.581 31.8248 64.4444C31.24 64.2738 31.9292 64.5454 30.9593 64.231C30.3495 64.031 30.7182 64.0457 30.5907 64.0003C30.4822 63.9675 28.3355 63.3162 29.2045 63.4995C29.2034 63.4991 29.2024 63.4986 29.2013 63.4982ZM19.9461 60.0136C19.859 59.9773 19.7591 59.9333 19.6372 59.876C19.7415 59.9229 19.8438 59.9683 19.9461 60.0136ZM40.6387 1.8603C40.0165 1.9714 41.8349 1.51683 42.5398 1.4135C42.5572 1.4383 40.7366 1.83866 40.6387 1.8603ZM21.0336 60.4174C22.719 61.1786 21.456 60.6796 19.9461 60.0136C20.4309 60.2148 20.4699 60.1576 21.0336 60.4174ZM10.0409 17.7134C9.97931 17.769 9.93555 17.7999 9.91746 17.7923C10.08 17.6463 10.1016 17.64 10.0409 17.7134ZM7.17572 21.1895C6.33482 22.4572 8.1398 19.9494 8.11977 19.9489C8.09575 19.9444 7.20328 21.1367 7.17572 21.1895ZM9.29683 53.7113C9.19443 53.6194 10.9557 54.8125 8.47201 52.985C9.74049 54.0386 8.37489 52.9587 8.38794 52.9851C8.40026 53.0275 9.11844 53.6124 9.82469 54.1557C10.3821 54.5872 10.9412 54.9793 11.1598 55.1411C11.4878 55.3008 10.5157 54.6594 9.839 54.1373C9.59525 53.9518 9.39287 53.7938 9.29959 53.7135C9.29867 53.7127 9.29775 53.712 9.29683 53.7113ZM49.5079 68.5142C49.1333 68.5034 47.9743 68.3028 47.194 68.16C47.5647 68.1816 48.7274 68.3936 49.5079 68.5142ZM124.491 10.4463C129.779 11.2724 130.431 11.583 125.613 10.6981C125.517 10.6802 124.167 10.4129 124.491 10.4463ZM168.87 23.388C169.27 23.7254 167.805 22.8403 166.857 22.2635C166.645 22.1328 165.87 21.5996 166.805 22.1142C166.725 22.1769 168.134 23.0358 168.87 23.388ZM22.0116 60.7894C22.1552 60.8353 22.3708 60.9195 22.6305 61.0259C23.3123 61.307 24.2763 61.7185 24.8664 61.9522C24.4699 61.836 23.4044 61.4084 22.6161 61.0599C22.3813 60.9567 22.1742 60.8636 22.0116 60.7894ZM141.776 13.8392C142.33 13.9713 142.712 13.9889 142.619 13.9616C142.203 13.8379 141.155 13.658 141.776 13.8392ZM17.149 58.5129C17.0923 58.4569 19.0901 59.4032 19.1974 59.5316C18.7718 59.3315 17.1867 58.5598 17.149 58.5129ZM48.035 68.2531C47.7036 68.1828 49.4451 68.441 49.9708 68.5308C49.9286 68.5619 48.2489 68.3036 48.035 68.2531ZM150.634 16.0153C151.122 16.1537 152.349 16.5039 152.491 16.517C152.672 16.5303 150.866 16.0309 150.634 16.0153ZM57.4302 5.65772C57.4229 5.65653 57.4418 5.65352 57.4825 5.64914C57.7898 5.61365 59.4239 5.50344 60.1995 5.5126C61.7556 5.52696 57.9793 5.63595 57.4828 5.65713C57.4524 5.65789 57.4343 5.65811 57.4302 5.65772ZM136.533 12.7473C134.978 12.3672 136.708 12.7799 136.651 12.6984C135.594 12.4776 132.976 11.9708 134.766 12.3865C135.115 12.4678 136.042 12.6428 136.533 12.7473ZM137.971 13.0672C138.14 13.079 139.29 13.2508 138.309 13.0481C137.858 12.9553 137.119 12.8826 137.971 13.0672ZM69.5644 5.57372C70.9894 5.64999 64.4445 5.53823 64.2545 5.54556C64.1553 5.53994 64.0885 5.53467 64.0513 5.53018C63.8081 5.54915 62.5702 5.55839 62.4274 5.51101C62.7981 5.5117 63.8119 5.50362 63.9307 5.50931C63.9817 5.51154 64.0198 5.51366 64.0461 5.51584C64.4825 5.46212 69.2938 5.54819 69.5644 5.57372ZM80.3991 5.99661C78.7669 6.00951 78.4811 5.84613 78.6228 5.84666C80.4047 5.86311 79.2393 5.92479 79.2931 5.93232C79.42 5.94636 80.6786 5.9534 80.394 5.99636C80.3957 5.99645 80.3974 5.99653 80.3991 5.99661ZM71.7866 5.64516C71.7177 5.64481 70.3486 5.61014 70.2908 5.60728C69.1665 5.53104 73.0521 5.62993 71.7866 5.64516ZM37.6251 65.853C38.5786 66.1134 37.625 65.9291 36.994 65.7417C36.9426 65.7257 36.7832 65.6203 37.6251 65.853ZM138.745 13.2152C138.822 13.2354 139.589 13.4058 140.521 13.6178C142.238 14.0048 144.534 14.5469 144.329 14.4423C144.064 14.3836 142.102 13.9114 140.533 13.5642C139.17 13.261 138.106 13.0478 138.745 13.2152ZM178.495 31.9361C177.841 30.9413 178.639 31.9631 178.92 32.5582C179.027 32.7742 178.658 32.1866 178.495 31.9361ZM14.5408 57.0268C13.5635 56.5111 13.835 56.4993 14.6378 57.0207C14.6695 57.041 14.5791 57.0467 14.5408 57.0268ZM172.19 25.6517C175.18 27.8884 174.375 27.392 170.496 24.6387C170.627 24.711 170.753 24.7807 170.886 24.8558C166.3 21.8941 170.6 24.589 171.707 25.377C172.13 25.6667 171.8 25.3821 172.187 25.6494C172.188 25.6502 172.189 25.651 172.19 25.6517ZM180.39 37.9635C180.218 40.7873 180.557 37.8982 179.886 35.3863C179.586 34.1381 179.027 33.0022 178.676 32.4155C179.81 34.2179 180.544 37.0632 179.323 33.3619C179.691 34.1571 179.898 34.8275 180.029 35.3501C180.585 38.0496 180.197 36.5231 180.241 36.6967C180.282 36.9491 180.395 37.7874 180.39 37.9635ZM175.932 28.8128C175.783 28.6554 174.62 27.5441 174.172 27.2006C174.849 27.6137 176.975 29.7962 175.932 28.8128ZM91.7426 6.67222C91.6154 6.71132 91.3073 6.72178 90.1416 6.61687C90.5061 6.61919 91.25 6.65442 91.7426 6.67222ZM45.242 1.13065C46.0478 0.982754 47.6766 0.746518 47.1704 0.774646C47.112 0.773596 45.2372 1.09732 45.242 1.13065ZM155.204 17.467C155.374 17.4993 159.646 18.9746 158.188 18.414C157.753 18.2184 153.847 16.9786 155.204 17.467ZM132.759 12.0541C133.122 12.1214 134.609 12.3976 134.645 12.3938C134.751 12.3726 132.923 12.0444 132.759 12.0541ZM49.3563 0.545154C49.4598 0.523978 51.9843 0.252657 51.7072 0.264386C51.1679 0.253934 48.9814 0.570072 49.3563 0.545154ZM41.142 66.6036C41.3449 66.6496 41.5995 66.7629 41.6697 66.7797C41.828 66.832 45.5676 67.6083 44.1261 67.3719C43.9932 67.3519 42.2905 66.9851 40.6988 66.5951C39.4086 66.2829 38.1817 65.963 37.8735 65.8804C37.6251 65.7448 39.8709 66.3821 40.4257 66.5026C40.4883 66.5167 40.5421 66.5037 40.7155 66.5251C40.8121 66.537 40.946 66.5596 41.1402 66.6035C41.1408 66.6035 41.1414 66.6035 41.142 66.6036ZM85.6482 6.29593C85.4837 6.32548 81.0502 6.1085 81.1059 6.06136C82.6227 6.13057 84.1345 6.20871 85.6482 6.29593ZM87.8955 6.44998C88.8365 6.54675 86.6253 6.40669 85.9755 6.35312C85.9716 6.32086 87.7603 6.43492 87.8955 6.44998ZM140.987 13.9164C141.286 13.9757 140.763 13.8234 140.494 13.7383C140.372 13.6994 140.305 13.6747 140.4 13.6916C140.424 13.6957 140.458 13.7028 140.5 13.7121C140.822 13.7823 141.596 13.9743 141.878 14.0198C141.964 14.0323 140.993 13.7475 140.701 13.6856C140.594 13.6628 140.541 13.6551 140.513 13.6545C140.435 13.6532 140.56 13.7088 140.231 13.6363C138.747 13.3098 137.437 12.9999 136.045 12.7212C135.919 12.696 136.89 12.927 135.814 12.7104C135.648 12.6774 134.661 12.4264 133.375 12.1905C130.508 11.8154 128.45 11.2871 124.826 10.7569C124.959 10.7912 127.657 11.2801 127.811 11.3108C130.824 11.841 136.219 12.8598 139.358 13.5533C140.169 13.7299 139.782 13.6107 140.129 13.6857C140.329 13.7292 140.202 13.7356 140.479 13.8062C140.582 13.8325 140.74 13.8675 140.987 13.9164ZM44.8193 1.24402C45.2146 1.23287 46.5598 0.953024 47.4326 0.826158C47.1163 0.813423 45.6616 1.09749 44.8193 1.24402ZM107.702 8.35307C108.132 8.40064 109.457 8.58007 109.569 8.57507C109.714 8.56672 107.798 8.3199 107.702 8.35307ZM62.389 69.5624C62.4299 69.5638 63.4754 69.6259 63.5116 69.6292C64.4385 69.7321 61.3174 69.5454 62.389 69.5624ZM87.2351 70.0449C88.0225 70.0317 88.8136 70.0047 89.0785 70.0536C88.5783 70.0509 87.143 70.0816 87.2351 70.0449ZM121.437 68.9663C121.271 68.9111 123.652 68.797 124.09 68.7683C123.934 68.8123 121.564 69.0091 121.437 68.9663ZM91.896 6.89639C90.448 6.77988 90.7519 6.90633 89.8338 6.7919C89.6842 6.77357 89.2164 6.5245 90.7992 6.7227C91.0843 6.75914 89.9607 6.72253 91.896 6.89639ZM169.85 24.2178C169.505 24.0476 168.513 23.4151 167.832 23.01C168.001 23.0675 169.371 23.9089 169.85 24.2178ZM53.9394 0.201166C54.6483 0.202235 57.9068 0.214007 57.1017 0.161032C56.9891 0.135312 54.396 0.164587 53.9394 0.201166ZM25.5721 62.0129C26.8198 62.4303 24.2772 61.4589 23.464 61.1636C23.8245 61.3146 25.4874 61.989 25.5721 62.0129ZM113.217 69.3637C113.284 69.3592 114.639 69.3024 114.707 69.3013C115.832 69.3019 111.957 69.4641 113.217 69.3637ZM79.0775 69.967C79.5788 69.9319 82.809 69.9737 83.5383 70.0112C82.8383 70.0762 78.4668 70.017 79.0775 69.967ZM97.8395 7.38084C97.2331 7.32503 96.6422 7.26693 96.0695 7.20859C95.6686 7.16779 95.2757 7.12682 94.8891 7.08614C94.974 7.07896 95.4909 7.12179 96.0722 7.17855C96.8658 7.25578 97.7791 7.36017 97.8395 7.38084ZM118.238 69.1133C118.311 69.1096 118.383 69.1096 118.452 69.1061C118.38 69.1087 118.308 69.1109 118.238 69.1133ZM120.797 10.2055C121.654 10.3484 121.484 10.2597 121.432 10.2497C120.788 10.1309 119.832 10.0456 120.797 10.2055ZM45.8274 1.15698C46.0745 1.15901 47.0465 0.974311 47.8651 0.85314C48.0765 0.821477 48.2723 0.79394 48.4476 0.772282C48.3672 0.769288 48.1495 0.791216 47.8615 0.828607C47.2314 0.908967 46.2914 1.07074 45.8274 1.15698ZM179.667 42.3027C179.392 42.9051 179.799 41.9691 180.024 40.6721C180.274 39.3725 180.173 37.7815 180.116 37.2505C180.127 37.2058 180.325 38.3947 180.22 39.6723C180.141 40.9513 179.707 42.2197 179.667 42.3027ZM21.8212 60.3926C21.7563 60.3208 20.0127 59.5982 20.3702 59.7808C20.5947 59.9005 21.8578 60.4408 21.8212 60.3926ZM179.604 34.733C179.455 34.2571 179.022 33.1924 179.211 33.5511C179.465 34.0096 179.651 34.8552 179.604 34.733ZM147.176 15.4283C147.356 15.4765 149.739 16.052 148.772 15.7522C148.101 15.544 147.969 15.5775 147.812 15.5372C147.634 15.4853 143.823 14.4597 147.176 15.4283ZM161.039 59.756C161.883 59.3436 162.916 58.8601 163.794 58.4012C163.452 58.6212 161.42 59.6283 161.039 59.756ZM28.6252 63.0055C28.4046 62.9585 22.6004 60.7483 25.8798 62.0535C26.0669 62.1438 29.2599 63.2881 28.6252 63.0055ZM91.896 6.89639C92.0775 6.91116 92.2872 6.92989 92.5308 6.95385C92.2887 6.93269 92.0786 6.91303 91.896 6.89639ZM108.269 8.53125C107.934 8.52348 109.601 8.7324 110.095 8.77716C110.251 8.75575 108.315 8.53111 108.269 8.53125ZM163.84 58.3264C164.023 58.2229 164.269 58.092 164.531 57.9516C164.988 57.7079 165.495 57.431 165.884 57.2025C165.828 57.2581 165.127 57.6719 164.545 57.977C164.214 58.1517 163.925 58.2947 163.84 58.3264ZM125.834 68.4959C126.938 68.4268 128.304 68.2941 128.317 68.2553C128.341 68.2589 128.394 68.2601 128.483 68.2581C128.576 68.2563 129.756 68.1259 130.276 68.0834C133.362 67.9123 118.382 69.1386 127.054 68.3269C126.648 68.3844 126.237 68.4411 125.834 68.4959ZM74.6913 69.8325C74.0674 69.7791 72.3064 69.8002 72.7628 69.8268C73.0814 69.8471 75.3182 69.8881 74.6913 69.8325ZM98.7877 69.6784C98.5992 69.6752 96.8905 69.7427 96.8462 69.7667C97.8307 69.7725 99.6409 69.6962 98.7877 69.6784ZM69.8697 69.6743C69.7218 69.6674 69.559 69.6713 69.4165 69.679C69.174 69.6914 68.9884 69.7142 69.0173 69.7171C69.1174 69.7268 69.2626 69.7329 69.4147 69.7355C69.8592 69.743 70.365 69.7186 69.8697 69.6743ZM94.8708 7.33727C95.1094 7.36643 95.5649 7.40229 96.0492 7.43489C96.738 7.48096 97.4861 7.5208 97.7259 7.51515C97.8002 7.53142 98.0018 7.56236 98.3726 7.61225C98.3714 7.61214 98.3703 7.61203 98.3692 7.61193C98.8762 7.62614 113.862 9.34273 103.818 8.11686C103.503 8.08 103.93 8.16808 102.648 8.02373C102.563 8.01422 102.525 7.97492 102.263 7.94573C101.661 7.87545 98.4543 7.53352 97.8056 7.50425C97.8007 7.49728 97.7596 7.48722 97.6716 7.47328C97.3271 7.41872 96.658 7.37339 96.0571 7.34658C95.2816 7.31157 94.6181 7.30657 94.8708 7.33727ZM102.18 69.5879C101.833 69.5846 100.747 69.6249 100.634 69.6584C101.174 69.6607 102.981 69.5965 102.18 69.5879ZM28.4848 62.8238C27.8179 62.5741 26.1025 61.9996 26.6075 62.21C26.9152 62.3479 29.252 63.1196 28.4848 62.8238ZM91.2616 69.8207C95.286 69.8016 92.2217 69.8048 92.8373 69.751C92.3116 69.7748 91.7874 69.798 91.2616 69.8207ZM76.2518 6.06705C76.8939 6.10164 76.1369 6.16183 75.43 6.08891C75.2079 6.06579 75.8942 6.04797 76.2518 6.06705ZM47.116 6.66611C47.6766 6.67675 44.9805 6.9575 46.0206 6.77502C46.0681 6.76602 47.0787 6.66609 47.116 6.66611ZM67.5027 5.91526C67.9352 5.86641 68.2268 5.86186 69.454 5.89537C67.6358 5.88266 69.3183 5.95373 67.5027 5.91526ZM128.305 68.2506C128.312 68.2522 128.318 68.2532 128.317 68.2553C128.309 68.2541 128.306 68.2525 128.305 68.2506ZM66.0735 69.5533C65.5794 69.4879 64.1519 69.4222 64.5741 69.4885C64.611 69.4954 65.8695 69.5793 66.0735 69.5533ZM97.7259 7.51515C97.6599 7.50075 97.6944 7.49866 97.8056 7.50425C97.8102 7.51082 97.781 7.51386 97.7259 7.51515ZM73.6796 69.7398C73.6232 69.7741 75.7809 69.8212 75.8632 69.817C77.1005 69.7735 74.5603 69.7557 73.6796 69.7398ZM15.2584 56.9801C15.1572 56.9282 15.7569 57.3622 16.1716 57.5428C16.4911 57.683 15.6367 57.1782 15.2584 56.9801ZM63.3205 5.92246C62.6343 5.92466 61.6736 5.934 61.4959 5.89454C61.9547 5.89461 63.3358 5.89101 63.3205 5.92246ZM48.1792 6.6083C48.9837 6.47205 50.8384 6.30861 52.0272 6.24018C52.0499 6.29468 48.9373 6.50119 48.1792 6.6083ZM93.0304 7.15841C93.0862 7.16465 94.7873 7.3271 94.5592 7.26481C94.2222 7.1712 92.5522 7.09543 93.0304 7.15841ZM18.247 58.5914C18.9584 58.9058 17.3901 58.0412 16.6292 57.7155C16.2347 57.5558 18.1238 58.5457 18.247 58.5914ZM61.6529 69.2627C60.6357 69.2246 63.149 69.425 63.4951 69.3942C63.0387 69.3667 62.014 69.2771 61.6529 69.2627ZM95.9562 69.6195C92.782 69.5453 94.5135 69.7526 95.076 69.7222C95.1554 69.7179 96.0339 69.6212 95.9562 69.6195ZM62.0434 0.820334C62.5014 0.852427 60.8098 0.599271 60.5821 0.627009C60.4447 0.639014 61.7525 0.795123 62.0434 0.820334ZM143.763 65.7546C143.63 65.7888 143.5 65.8218 143.37 65.8546C143.467 65.8282 143.594 65.7958 143.763 65.7546ZM52.4918 68.2495C54.7141 68.7065 54.4918 68.5234 54.6889 68.549C55.1066 68.5965 56.0804 68.7462 56.8771 68.8099C55.9613 68.7471 55.0605 68.6773 54.1424 68.5956C54.8611 68.7263 61.0944 69.3087 61.2279 69.261C61.4182 69.2328 59.4623 69.1114 59.3973 69.1C59.3145 69.0885 59.0167 68.9471 58.8374 68.9284C58.5373 68.9193 53.3261 68.414 52.4918 68.2495ZM89.3225 69.7353C89.8338 69.7443 89.9787 69.7895 90.2154 69.7757C90.296 69.771 90.3085 69.7261 90.5839 69.7114C90.1635 69.7197 89.7442 69.7277 89.3225 69.7353ZM48.4603 67.8326C47.8353 67.68 50.672 68.1482 50.7627 68.1574C51.2448 68.2663 48.9705 67.9696 48.4603 67.8326ZM72.6028 69.6791C72.5053 69.6756 70.3212 69.6055 70.3338 69.6345C70.9147 69.6769 73.8248 69.7447 72.6028 69.6791ZM90.9244 69.7043C91.6903 69.7007 93.1351 69.7247 92.9688 69.6597C92.9677 69.6597 92.9666 69.6597 92.9654 69.6597C92.2844 69.6755 91.6061 69.6904 90.9244 69.7043ZM20.713 59.5933C19.4498 58.8974 20.0103 59.31 21.1588 59.8619C21.5309 59.9744 20.9217 59.7073 20.713 59.5933ZM16.5949 57.5038C16.2331 57.3396 12.6163 55.2372 13.142 55.5955C13.3193 55.7496 15.4233 56.918 15.5223 56.9621C15.6668 57.0469 14.9641 56.7373 16.0934 57.3368C16.0382 57.2841 16.7135 57.5743 16.5949 57.5038ZM19.6596 59.0338C18.3999 58.3495 18.0468 58.3363 19.0177 58.807C19.3975 58.9891 19.8395 59.1307 19.6596 59.0338ZM25.021 61.3483C24.6257 61.1828 23.6828 60.7905 22.8666 60.4687C22.7014 60.4039 22.5419 60.3428 22.3933 60.2881C22.5475 60.355 22.7025 60.4217 22.8583 60.4884C23.8681 60.9204 24.8868 61.3293 25.9114 61.7185C26.0578 61.7434 25.4371 61.5244 25.0177 61.347C25.0188 61.3475 25.0199 61.3479 25.021 61.3483ZM39.787 8.16498C40.8959 8.0316 38.3599 8.45201 38.2539 8.4563C37.9312 8.47179 39.2911 8.22536 39.787 8.16498ZM70.5506 3.22106C70.8548 3.27545 71.0548 3.35628 71.7329 3.41009C71.0581 3.28551 70.3848 3.16141 69.7008 3.0363C69.1616 3.06583 70.2216 3.16181 70.5506 3.22106ZM73.112 3.88446C73.0137 3.87467 73.5282 4.08468 72.2911 3.83425C71.4594 3.66507 76.0353 4.16657 76.8539 4.3344C75.9433 4.25108 73.9419 3.96796 73.112 3.88446ZM81.0421 5.50171C81.0954 5.52075 79.3549 5.32413 79.1514 5.29014C78.1068 5.11709 80.762 5.40687 81.0421 5.50171ZM75.5015 4.78734C76.3167 4.91718 74.5122 4.71116 73.9711 4.62789C73.9257 4.59489 75.3843 4.76855 75.5015 4.78734ZM51.2628 8.83551C52.1469 8.86852 52.9248 8.60392 51.5716 8.7412C51.5102 8.7476 51.2237 8.83355 51.2628 8.83551ZM79.3244 5.4389C78.509 5.30925 80.3221 5.51619 80.8577 5.59686C80.9041 5.63032 79.4452 5.4584 79.3244 5.4389ZM51.8981 9.02526C53.0683 9.01686 52.6436 8.80772 52.4962 8.80698C51.8913 8.80301 49.8407 9.06118 49.425 9.12877C52.4976 8.82628 51.3483 9.03712 51.8981 9.02526ZM57.2845 8.61362C58.3757 8.55279 55.5891 8.5943 55.0655 8.69151C55.5993 8.66213 56.9786 8.62932 57.2845 8.61362ZM63.8969 8.58566C64.4835 8.5915 66.2259 8.61879 66.5197 8.58471C65.8758 8.5851 64.1487 8.54522 63.8969 8.58566ZM65.2255 8.69904C66.137 8.75361 66.3576 8.60616 65.3053 8.64588C65.2652 8.64747 65.1914 8.6961 65.2255 8.69904ZM70.3721 8.81307C70.9781 8.88445 71.6585 8.75583 70.6884 8.73073C70.3973 8.72376 70.3086 8.80504 70.3721 8.81307ZM53.3735 9.18791C54.2255 9.16443 55.3303 9.00463 53.5003 9.09131C54.1365 9.03904 54.7818 8.99107 55.4207 8.94757C53.0223 9.00147 53.2157 9.14834 52.5241 9.18318C51.5674 9.23867 51.6346 9.11829 51.8234 9.06696C51.0457 9.18394 47.717 9.47772 45.8087 9.7571C47.4955 9.55897 50.2316 9.34181 51.9039 9.25126C52.3837 9.22297 52.846 9.16106 53.2492 9.14081C53.9065 9.10861 53.325 9.18898 53.3701 9.18811C53.3712 9.18804 53.3724 9.18798 53.3735 9.18791ZM77.1411 9.01879C78.9067 9.15853 77.7901 8.96633 76.7957 8.9533C76.7539 8.95363 77.0973 9.01536 77.1411 9.01879ZM81.6135 6.16018C79.2548 5.81602 80.9748 5.94518 76.045 5.45495C78.1212 5.6266 76.1687 5.40787 76.5762 5.42358C76.8982 5.43596 78.1141 5.61038 77.4119 5.46709C78.3585 5.64213 82.2586 6.12882 82.6461 6.13869C82.6423 6.1386 82.6387 6.13849 82.6351 6.13837C82.7882 6.14313 82.5808 6.17905 82.4319 6.19579C82.2577 6.2131 81.9936 6.21399 81.6135 6.16018ZM63.9061 8.96408C64.4974 9.13912 64.7281 8.85911 65.8815 9.01001C67.4202 8.80026 61.6346 9.00212 60.9259 8.85097C67.2195 8.80731 56.7679 8.7271 61.1638 8.93813C57.5465 8.90139 59.9803 8.99111 59.4228 9.0344C59.0666 9.06297 58.2011 9.07833 57.5866 9.10324C57.1541 9.12034 56.8481 9.14045 56.8903 9.16556C56.8914 9.16552 56.8925 9.16549 56.8936 9.16545C57.1218 9.15681 57.3531 9.14852 57.5877 9.14061C58.6024 9.10633 59.6187 9.08036 60.6383 9.06116C59.4172 8.93917 61.9682 8.94062 62.8368 9.0543C63.1977 9.02347 63.5473 8.99343 63.9061 8.96408ZM56.8279 8.9515C56.8675 8.95121 57.1756 8.93905 57.5812 8.92354C58.4042 8.89083 59.6164 8.8506 59.4922 8.83426C59.3225 8.82894 58.3648 8.84994 57.5799 8.88119C56.6893 8.91613 56.005 8.95961 56.8279 8.9515ZM44.9609 9.95814C45.9245 9.82234 47.4159 9.67151 47.9362 9.56377C46.9704 9.66567 45.4781 9.83082 44.9609 9.95814ZM95.1789 10.2922C96.4268 10.3564 92.5981 10.0135 93.7018 10.1603C93.7568 10.1667 95.1176 10.2882 95.1789 10.2922ZM66.7409 8.94689C68.0134 9.01273 67.4081 8.83509 66.4722 8.87215C66.4182 8.87436 66.6824 8.94393 66.7409 8.94689ZM79.695 5.9488C79.6009 5.98007 76.2032 5.52704 75.5944 5.4518C75.9473 5.45636 79.7904 5.9131 79.695 5.9488ZM43.2888 10.3587C45.2259 10.2082 47.7948 9.73247 48.083 9.71118C48.3666 9.68468 47.9296 9.79771 47.9946 9.79257C48.1409 9.76891 51.1647 9.48621 51.3118 9.48126C51.4172 9.46969 50.8584 9.41934 51.4863 9.34268C50.2586 9.44219 44.7433 10.0513 44.4582 10.1366C44.2378 10.178 45.9233 10.0284 43.2921 10.3582C43.291 10.3583 43.2899 10.3585 43.2888 10.3587ZM48.7979 9.65712C48.0384 9.69323 50.157 9.47874 50.6726 9.45726C51.8214 9.39343 48.8919 9.64232 48.7979 9.65712ZM53.9101 9.30381C54.1591 9.2945 56.3533 9.20497 56.5408 9.15894C55.4932 9.13602 53.3563 9.31244 53.9101 9.30381ZM78.5117 9.37161C79.0878 9.39016 80.666 9.49879 80.7596 9.46642C80.1814 9.44215 78.6036 9.33716 78.5117 9.37161ZM68.0241 4.83915C68.9706 4.98585 66.7654 4.73101 66.1228 4.63863C66.0854 4.60862 67.9416 4.8262 68.0241 4.83915ZM66.9523 9.30916C67.2931 9.30514 74.233 9.42131 75.208 9.45649C74.2556 9.37628 67.3784 9.22954 67.0645 9.25862C66.973 9.26192 66.9089 9.30697 66.9523 9.30916ZM52.0033 9.68238C51.3836 9.78141 50.9629 9.74895 50.8864 9.75411C50.1073 9.80397 48.5034 9.97476 48.8497 9.88749C50.2141 9.76013 53.254 9.48576 52.0033 9.68238ZM78.9941 9.64438C81.352 9.73059 76.8281 9.46923 77.4186 9.5559C77.4574 9.56045 78.7496 9.6349 78.9941 9.64438ZM66.1784 9.31938C65.6527 9.33921 58.7277 9.35189 57.619 9.41487C58.6091 9.30309 59.4116 9.34627 60.75 9.32168C61.1117 9.31526 61.0153 9.28233 61.0541 9.28171C61.681 9.27218 61.2121 9.31774 61.5967 9.31386C61.8402 9.29885 66.9064 9.25272 66.1784 9.31938ZM51.6484 9.7463C51.2622 9.78358 47.0021 10.2132 46.8347 10.2476C45.5435 10.3164 51.3063 9.71862 51.6484 9.7463ZM66.813 9.39767C66.0644 9.48247 62.6281 9.41851 64.9804 9.37166C65.2096 9.36748 66.162 9.41282 66.813 9.39767ZM78.738 9.7246C78.8563 9.73063 81.3089 9.86754 81.3539 9.84115C81.0044 9.80683 77.4193 9.6341 78.738 9.7246ZM77.4605 9.77385C77.5204 9.77575 76.9443 9.6925 78.0995 9.74822C78.1947 9.75347 78.3696 9.8249 79.8178 9.86809C80.1109 9.87684 80.5701 9.85544 80.5373 9.85113C79.0328 9.66579 74.4871 9.69194 77.4605 9.77385ZM51.5749 9.80556C51.8072 9.8167 51.2549 9.93952 50.7524 9.93853C50.5366 9.93831 50.9297 9.85427 51.5749 9.80556ZM86.5212 10.1777C85.0923 10.1328 89.5684 10.442 89.7967 10.4524C89.6541 10.4075 86.6662 10.1793 86.5212 10.1777ZM65.7482 4.95562C65.7493 4.95575 65.7505 4.95589 65.7516 4.95602C64.5509 4.80014 65.3015 4.84821 65.2435 4.8399C62.7049 4.47356 63.3594 4.64817 62.9639 4.6121C62.4488 4.56553 62.2971 4.51086 61.9352 4.44729C61.7043 4.40667 61.3901 4.36259 60.8323 4.32383C61.053 4.34749 61.7146 4.42256 61.9353 4.44622C61.9436 4.37605 61.9401 4.40547 61.945 4.3647C61.7528 4.34409 61.1766 4.27772 60.9844 4.25711C60.8914 4.18347 61.3185 4.22232 61.9508 4.31527C63.0017 4.46894 64.5921 4.74555 65.3245 4.81182C65.4921 4.82701 64.277 4.62736 64.7032 4.66316C66.09 4.77918 70.339 5.55471 65.7482 4.95562ZM50.3679 9.97788C49.8179 10.0503 45.6744 10.4741 46.7665 10.3103C46.9383 10.2599 51.1656 9.82408 50.3679 9.97788ZM128.344 64.5315C129.353 64.3937 127.001 64.5645 126.582 64.6295C126.367 64.6651 127.909 64.5932 128.344 64.5315ZM111.872 65.3832C110.66 65.4426 109.398 65.6687 110.899 65.582C111.054 65.5729 112.013 65.4021 111.872 65.3832ZM176.132 36.7305C176.271 37.7853 176.362 37.7053 176.229 36.9367C176.173 36.6637 176.126 36.6969 176.132 36.7305ZM142.574 62.1989C142.452 62.2288 141.071 62.5633 141.125 62.5755C141.644 62.4809 143.353 62.0329 142.574 62.1989ZM176.037 36.3998C176.118 36.6921 176.123 36.6039 176.075 36.3483C176.028 36.0896 175.891 35.6446 175.698 35.3077C175.84 35.6109 175.998 36.2017 176.028 36.3601C176.032 36.3798 176.036 36.3934 176.037 36.3998ZM69.4132 9.69176C70.0361 9.65285 71.8134 9.7051 72.8248 9.72589C72.9321 9.78932 70.1377 9.6892 69.4132 9.69176ZM117.001 65.2147C115.864 65.3183 118.313 65.2263 118.084 65.1789C118.057 65.1775 117.039 65.2112 117.001 65.2147ZM143.627 18.5303C144.441 18.6851 141.895 18.0297 142.584 18.2605C142.615 18.2702 143.584 18.5216 143.627 18.5303ZM132.401 16.1076C133.023 16.234 135.646 16.7481 134.633 16.5108C134.477 16.4721 132.457 16.0814 132.401 16.1076ZM62.8885 4.6486C63.0786 4.70896 62.5044 4.65112 61.9192 4.58176C61.5112 4.53317 61.1101 4.48462 60.9968 4.46801C60.9349 4.45884 61.4195 4.46909 61.9275 4.51213C62.3154 4.54518 62.7068 4.59111 62.8885 4.6486ZM174.904 43.2137C174.64 43.748 173.784 45.0532 173.641 45.2931C174.082 44.6951 175.07 43.0771 174.904 43.2137ZM122.203 64.9078C121.443 64.9058 120.288 64.9681 119.952 65.0271C119.852 65.0454 119.833 65.0636 119.933 65.0795C119.94 65.079 119.948 65.0786 119.955 65.0781C121.801 64.9579 119.705 65.0155 122.203 64.9078ZM174.474 33.411C174.735 33.7686 174.985 34.0029 174.963 33.9596C174.741 33.5368 174.228 33.0352 174.474 33.411ZM155.15 58.0372C155.11 58.0165 153.58 58.6351 153.793 58.576C153.864 58.5601 155.185 58.0585 155.15 58.0372ZM91.3404 10.7737C92.1046 10.8672 89.7617 10.7192 89.0718 10.6316C88.7392 10.5483 91.2423 10.76 91.3404 10.7737ZM163.625 25.2476C163.59 25.2523 163.867 25.4094 164.174 25.5843C164.746 25.9082 165.446 26.2898 164.902 25.9405C164.797 25.8736 164.494 25.7001 164.2 25.5388C163.917 25.3836 163.639 25.2444 163.625 25.2476ZM140.179 17.8481C140.746 17.9535 140.352 17.8435 139.62 17.6662C138.157 17.3066 135.341 16.7282 136.6 17.0438C136.7 17.0676 138.631 17.4921 139.608 17.7191C139.925 17.7915 140.143 17.8413 140.179 17.8481ZM128.395 15.4758C128.691 15.5354 128.515 15.6925 127.289 15.4088C127.128 15.3716 127.897 15.4535 127.766 15.4195C127.687 15.3966 125.005 14.9191 124.88 14.9057C124.745 14.8887 124.893 14.9737 124.756 14.9582C124.6 14.9396 122.953 14.6206 122.084 14.486C120.447 14.2316 120.259 14.2569 120.126 14.2365C119.737 14.1783 119.08 14.0443 118.288 13.9293C114.283 13.3373 108.134 12.6048 104.955 12.1496C107.789 12.5117 110.497 12.7982 113.316 13.158C112.478 13.1477 117.471 13.6416 114.548 13.3638C115.898 13.4751 127.433 15.2345 128.392 15.4752C128.393 15.4754 128.394 15.4756 128.395 15.4758ZM107.098 65.5119C107.838 65.4242 104.026 65.5633 103.705 65.644C104.209 65.641 107.002 65.5238 107.098 65.5119ZM124.626 64.4546C124.968 64.4161 125.298 64.2717 127.137 64.1762C127.138 64.1761 127.14 64.1759 127.142 64.1758C127.686 64.1461 127.071 64.2313 127.171 64.2333C127.215 64.235 128.882 64.1446 127.5 64.2809C125.382 64.4809 127.296 64.2068 126.16 64.302C126.025 64.3157 123.888 64.5489 124.011 64.5528C124.025 64.5536 124.67 64.491 124.774 64.489C125.176 64.4812 124.985 64.535 125.042 64.5325C125.236 64.5285 128.605 64.1715 129.101 64.1723C129.267 64.1934 123.719 64.7073 123.492 64.6969C123.356 64.7005 123.406 64.5883 123.263 64.5877C123.192 64.5896 120.938 64.7803 120.656 64.7856C120.571 64.7879 120.506 64.7888 120.458 64.7892C120.604 64.7945 120.319 64.8199 119.941 64.8437C119.45 64.8749 118.786 64.9025 118.821 64.8787C118.845 64.8672 119.514 64.8299 119.939 64.8068C120.142 64.7957 120.294 64.7879 120.31 64.7878C120.332 64.7875 120.351 64.7879 120.369 64.7878C120.079 64.7726 124.81 64.4529 123.783 64.4605C125.16 64.3251 123.6 64.5642 124.626 64.4546ZM131.17 63.7798C131.03 63.8071 130.896 63.8335 130.757 63.8603C133.127 63.5718 135.856 63.2654 138.521 62.7581C139.197 62.6278 138.404 62.712 139.295 62.5554C140.005 62.4294 140.799 62.3186 140.418 62.4171C140.326 62.4438 138.879 62.7028 138.153 62.8367C136.009 63.2324 136.559 63.1836 136.434 63.21C136.29 63.2373 134.93 63.4069 134.181 63.5096C132.292 63.7689 131.445 63.912 128.84 64.1244C130.336 63.9346 129.505 63.9368 131.17 63.7798ZM153.616 21.456C153.518 21.4623 152.042 20.9781 151.489 20.8264C151.593 20.8151 153.071 21.2886 153.616 21.456ZM5.52015 33.3503C5.53825 32.9016 4.7628 36.051 5.01466 35.2307C5.05008 35.0434 5.38312 33.731 5.52015 33.3503ZM7.85712 46.3431C8.1655 46.6588 7.00073 45.3111 6.98516 45.3381C6.96566 45.3538 7.80645 46.3058 7.85712 46.3431ZM160.422 55.3885C160.504 55.3499 161.672 54.7778 161.707 54.7599C162.514 54.4388 158.651 56.3033 160.422 55.3885ZM23.728 56.611C23.0015 56.3154 23.6336 56.6094 24.3686 56.9254C25.1821 57.2763 26.1288 57.6418 25.3923 57.3168C25.3528 57.2994 24.8281 57.0831 24.3827 56.8921C24.0497 56.7498 23.76 56.6239 23.728 56.611ZM30.2149 59.0806C29.8339 58.9594 28.1709 58.3498 28.1448 58.3562C28.0982 58.377 30.0054 59.0709 30.2149 59.0806ZM174.107 33.3161C174.182 33.4796 172.877 31.9004 172.275 31.4163C172.205 31.2347 173.712 32.7595 174.107 33.3161ZM173.703 44.5016C174.605 43.1053 175.146 41.9478 175.498 41.0889C175.942 39.9515 175.923 39.3974 175.95 39.4375C175.947 39.4723 175.951 40.0954 175.553 41.1111C175.149 42.1136 174.486 43.4657 173.427 44.9719C173.383 44.9553 173.388 44.9826 173.703 44.5016ZM175.046 34.8115C175.229 35.0404 175.578 35.8447 175.703 36.3995C175.67 36.3038 175.288 35.1869 175.046 34.8115ZM7.161 29.9113C6.88122 30.3915 5.83102 32.5998 5.99451 32.1983C5.97863 32.0805 7.19996 29.6988 7.161 29.9113ZM161.128 54.9717C160.994 54.9957 161.788 54.5902 162.516 54.2012C163.067 53.9089 163.576 53.6247 163.661 53.5826C164.102 53.3626 163.349 53.8129 162.538 54.2417C161.894 54.5845 161.217 54.9194 161.128 54.9717ZM163.396 25.4819C162.939 25.2908 161.673 24.6362 160.819 24.2681C161.229 24.3907 162.724 25.1108 163.396 25.4819ZM169.145 29.0513C169.098 29.0158 168.027 28.2882 167.975 28.2567C167.121 27.6188 170.154 29.6856 169.145 29.0513ZM67.3451 5.66092C67.3054 5.65777 66.2741 5.52968 66.2414 5.5238C65.3351 5.363 68.4058 5.7448 67.3451 5.66092Z" fill="#FF4800"/>
</svg>
