<svg width="65" height="71" viewBox="0 0 65 71" fill="none" xmlns="http://www.w3.org/2000/svg">
<path d="M25.904 70.408C18.608 70.408 12.5707 68.4667 7.792 64.584C3.056 60.7013 0.688 55.5813 0.688 49.224C0.688 42.44 3.312 37.064 8.56 33.096C13.8507 29.0853 20.7627 27.08 29.296 27.08C32.496 27.08 35.6533 27.4 38.768 28.04C41.9253 28.68 44.7627 29.576 47.28 30.728V27.016C47.28 22.8347 45.808 19.592 42.864 17.288C39.9627 14.9413 36.4427 13.768 32.304 13.768C30.0427 13.768 27.9733 14.0667 26.096 14.664C24.2613 15.2187 22.5547 16.0293 20.976 17.096C19.44 18.12 17.8827 19.3787 16.304 20.872C14.768 22.3227 14 23.048 14 23.048L2.928 13.96C2.928 13.96 4.03733 12.936 6.256 10.888C8.47467 8.84 10.928 7.00533 13.616 5.384C16.3467 3.76266 19.376 2.52533 22.704 1.672C26.032 0.818665 29.9147 0.391998 34.352 0.391998C43.2693 0.391998 50.4373 2.67466 55.856 7.24C61.3173 11.8053 64.048 18.184 64.048 26.376V69H47.984V55.496L51.248 59.016H47.92C45.5307 62.7707 42.4587 65.608 38.704 67.528C34.992 69.448 30.7253 70.408 25.904 70.408ZM30.32 57.992C35.5253 57.992 39.6427 56.2 42.672 52.616C45.744 49.032 47.28 45.384 47.28 41.672V41.032C45.5733 39.9227 43.376 39.0267 40.688 38.344C38 37.6187 35.0987 37.256 31.984 37.256C27.504 37.256 23.92 38.1733 21.232 40.008C18.544 41.8427 17.2 44.4667 17.2 47.88C17.2 51.08 18.416 53.576 20.848 55.368C23.28 57.1173 26.4373 57.992 30.32 57.992Z" fill="white"/>
</svg>
